<svg xmlns="http://www.w3.org/2000/svg" viewBox="0 0 320 128" width="320" height="128">
  <defs>
    <path id="hrt2" d="M12 21C12 21 3 14.5 3 8.5A5.5 5.5 0 0 1 12 5A5.5 5.5 0 0 1 21 8.5C21 14.5 12 21 12 21Z"/>
    <path id="spk" d="M0-16C0-4-4 0-16 0-4 0 0 4 0 16 0 4 4 0 16 0 4 0 0-4 0-16Z"/>
  </defs>
  <!-- phong bì phía sau -->
  <g transform="rotate(-8 118 70)">
    <rect x="62" y="38" width="112" height="74" rx="12" fill="#FFD6E4"/>
    <path d="M62 50 L118 84 L174 50" fill="none" stroke="#FFFFFF" stroke-width="5" stroke-linecap="round" stroke-linejoin="round"/>
  </g>
  <!-- thiệp phía trước -->
  <g transform="rotate(6 186 62)">
    <rect x="140" y="12" width="92" height="100" rx="12" fill="#FFFFFF" stroke="#F4477F" stroke-width="4"/>
    <use href="#hrt2" fill="#FF6FA5" transform="translate(174 24) scale(1.05)"/>
    <rect x="156" y="58" width="60" height="7" rx="3.5" fill="#FFD6E4"/>
    <rect x="156" y="72" width="60" height="7" rx="3.5" fill="#FFD6E4"/>
    <rect x="166" y="88" width="40" height="7" rx="3.5" fill="#FF6FA5"/>
  </g>
  <!-- lấp lánh -->
  <use href="#spk" fill="#F4477F" transform="translate(258 30) scale(0.85)"/>
  <use href="#spk" fill="#FF6FA5" transform="translate(284 72) scale(0.5)"/>
  <use href="#spk" fill="#FFB3CD" transform="translate(246 92) scale(0.45)"/>
</svg>
