<svg xmlns="http://www.w3.org/2000/svg" viewBox="0 0 240 240">
  <defs>
    <radialGradient id="r" cx="50%" cy="40%" r="60%"><stop offset="0" stop-color="#e3363f"/><stop offset="1" stop-color="#a3141f"/></radialGradient>
    <linearGradient id="g" x1="0" y1="0" x2="1" y2="1"><stop offset="0" stop-color="#fbe6a6"/><stop offset="1" stop-color="#d4a53f"/></linearGradient>
  </defs>
  <circle cx="120" cy="120" r="110" fill="url(#r)"/>
  <circle cx="120" cy="120" r="100" fill="none" stroke="url(#g)" stroke-width="3"/>
  <circle cx="120" cy="120" r="93" fill="none" stroke="url(#g)" stroke-width="1" stroke-dasharray="3 5"/>
  <g fill="url(#g)">
    <g id="hi">
      <rect x="52" y="54" width="54" height="7"/><rect x="75" y="46" width="8" height="24"/>
      <rect x="58" y="68" width="42" height="7"/>
      <rect x="60" y="82" width="38" height="7"/><rect x="60" y="82" width="7" height="22"/><rect x="91" y="82" width="7" height="22"/><rect x="60" y="97" width="38" height="7"/>
      <rect x="54" y="111" width="50" height="7"/>
      <rect x="64" y="104" width="7" height="14" transform="rotate(-20 67 111)"/><rect x="87" y="104" width="7" height="14" transform="rotate(20 90 111)"/>
      <rect x="50" y="125" width="58" height="7"/><rect x="75" y="118" width="8" height="14"/>
      <rect x="60" y="140" width="38" height="7"/><rect x="60" y="140" width="7" height="30"/><rect x="91" y="140" width="7" height="30"/><rect x="60" y="163" width="38" height="7"/>
      <rect x="67" y="152" width="24" height="5"/>
    </g>
    <use href="#hi" transform="translate(82 0)"/>
  </g>
  <g fill="url(#g)"><circle cx="120" cy="20" r="4"/><circle cx="120" cy="220" r="4"/><circle cx="20" cy="120" r="4"/><circle cx="220" cy="120" r="4"/></g>
</svg>
