<svg xmlns="http://www.w3.org/2000/svg" viewBox="0 0 260 320">
  <defs>
    <linearGradient id="c" x1="0" y1="0" x2="1" y2="0"><stop offset="0" stop-color="#eee2d3"/><stop offset=".35" stop-color="#fffdf9"/><stop offset=".75" stop-color="#fbf5ec"/><stop offset="1" stop-color="#e5d6c3"/></linearGradient>
    <linearGradient id="g" x1="0" y1="0" x2="1" y2="0"><stop offset="0" stop-color="#b98a2e"/><stop offset=".5" stop-color="#f3d98e"/><stop offset="1" stop-color="#b98a2e"/></linearGradient>
    <radialGradient id="p" cx="50%" cy="45%" r="60%"><stop offset="0" stop-color="#fde0e6"/><stop offset="1" stop-color="#e98ea4"/></radialGradient>
    <g id="rs"><circle r="9" fill="url(#p)"/><path d="M-5 1c0-4 3-6 6-5 3 1 4 5 1 7-2 1-4 0-4-2" fill="none" stroke="#c9657f" stroke-width="1.4"/></g>
  </defs>
  <ellipse cx="130" cy="294" rx="112" ry="7" fill="url(#g)"/>
  <path d="M110 298l-6 16h52l-6-16z" fill="url(#g)"/>
  <g stroke="#dccbb5" stroke-width="1.5">
    <rect x="36" y="222" width="188" height="66" rx="6" fill="url(#c)"/>
    <rect x="60" y="164" width="140" height="60" rx="6" fill="url(#c)"/>
    <rect x="86" y="112" width="88" height="54" rx="6" fill="url(#c)"/>
  </g>
  <g fill="#f7e1e6" stroke="#ecc3cd" stroke-width="1.2">
    <path d="M36 228q0-6 6-6h176q6 0 6 6v6q-8 10-16 0-8 10-16 0-8 10-16 0-8 10-16 0-8 10-16 0-8 10-16 0-8 10-16 0-8 10-16 0-8 10-16 0-8 10-16 0-8 10-16 0-8 10-16 0-8 10-12 0z"/>
    <path d="M60 170q0-6 6-6h128q6 0 6 6v6q-8 10-16 0-8 10-16 0-8 10-16 0-8 10-16 0-8 10-16 0-8 10-16 0-8 10-16 0-8 10-16 0-8 10-12 0z"/>
    <path d="M86 118q0-6 6-6h76q6 0 6 6v6q-8 10-16 0-8 10-16 0-8 10-16 0-8 10-16 0-8 10-12 0z"/>
  </g>
  <g fill="#e8d6ae">
    <g id="pr"><circle cx="46" cy="280" r="3"/><circle cx="58" cy="280" r="3"/><circle cx="70" cy="280" r="3"/><circle cx="82" cy="280" r="3"/><circle cx="94" cy="280" r="3"/><circle cx="106" cy="280" r="3"/><circle cx="118" cy="280" r="3"/><circle cx="130" cy="280" r="3"/><circle cx="142" cy="280" r="3"/><circle cx="154" cy="280" r="3"/><circle cx="166" cy="280" r="3"/><circle cx="178" cy="280" r="3"/><circle cx="190" cy="280" r="3"/><circle cx="202" cy="280" r="3"/><circle cx="214" cy="280" r="3"/></g>
    <circle cx="70" cy="216" r="3"/><circle cx="84" cy="216" r="3"/><circle cx="98" cy="216" r="3"/><circle cx="112" cy="216" r="3"/><circle cx="126" cy="216" r="3"/><circle cx="140" cy="216" r="3"/><circle cx="154" cy="216" r="3"/><circle cx="168" cy="216" r="3"/><circle cx="182" cy="216" r="3"/><circle cx="192" cy="216" r="3"/>
    <circle cx="96" cy="158" r="3"/><circle cx="110" cy="158" r="3"/><circle cx="124" cy="158" r="3"/><circle cx="138" cy="158" r="3"/><circle cx="152" cy="158" r="3"/><circle cx="164" cy="158" r="3"/>
  </g>
  <g fill="#8fb584">
    <path d="M150 128c10-8 22-6 26 0-8 6-18 6-26 0zM186 184c10-6 20-2 22 4-8 4-16 4-22-4zM66 248c-10-6-20-2-22 4 8 4 16 4 22-4zM96 196c-8-8-18-8-22-2 6 6 16 6 22 2z"/>
  </g>
  <use href="#rs" transform="translate(166 126) scale(1.2)"/>
  <use href="#rs" transform="translate(180 138)"/>
  <use href="#rs" transform="translate(194 178) scale(1.1)"/>
  <use href="#rs" transform="translate(206 192) scale(.85)"/>
  <use href="#rs" transform="translate(82 196)"/>
  <use href="#rs" transform="translate(56 244) scale(1.2)"/>
  <use href="#rs" transform="translate(44 258) scale(.85)"/>
  <path d="M130 108V70" stroke="url(#g)" stroke-width="2.5"/>
  <path d="M130 88c-12-9-24-16-24-28 0-7 6-12 12-12 5 0 10 3 12 7 2-4 7-7 12-7 6 0 12 5 12 12 0 12-12 19-24 28z" fill="url(#g)"/>
  <path d="M113 58c3-4 8-5 11-3" stroke="#fff" stroke-opacity=".7" stroke-width="2.5" fill="none" stroke-linecap="round"/>
</svg>
