<svg xmlns="http://www.w3.org/2000/svg" viewBox="0 0 320 250">
  <defs>
    <linearGradient id="e" x1="0" y1="0" x2="0" y2="1"><stop offset="0" stop-color="#fdf7ee"/><stop offset="1" stop-color="#f1e4d0"/></linearGradient>
    <radialGradient id="w" cx="40%" cy="35%" r="70%"><stop offset="0" stop-color="#e2505c"/><stop offset=".7" stop-color="#a81d2c"/><stop offset="1" stop-color="#7c1220"/></radialGradient>
  </defs>
  <rect x="40" y="70" width="240" height="160" rx="8" fill="url(#e)" stroke="#d6c1a0" stroke-width="2"/>
  <path d="M40 222l104-78M280 222l-104-78" fill="none" stroke="#dfcdb0" stroke-width="2"/>
  <path d="M44 74l116 92 116-92" fill="#f7ecdc" stroke="#d6c1a0" stroke-width="2" stroke-linejoin="round"/>
  <g transform="translate(236 64) rotate(18)">
    <path d="M0 0c-3-30 8-50 20-58" stroke="#6f9a6c" stroke-width="2.5" fill="none"/>
    <path d="M4-20c8-10 20-10 22-4-6 8-16 8-22 4zM2-36c-10-6-18-2-18 4 8 4 14 2 18-4z" fill="#8db88a"/>
    <g fill="#f4b6c5"><circle cx="20" cy="-60" r="7"/><circle cx="14" cy="-52" r="5"/><circle cx="27" cy="-50" r="5"/></g>
    <circle cx="20" cy="-56" r="3" fill="#f7d98a"/>
  </g>
  <path d="M142 168c-8-16 0-30 18-32 20-2 30 10 26 26-4 16-14 20-24 22-12 2-18-4-20-16z" fill="url(#w)"/>
  <circle cx="160" cy="162" r="18" fill="none" stroke="#7c1220" stroke-opacity=".45" stroke-width="2"/>
  <path d="M160 174c-7-5-13-9-13-15 0-4 3-7 7-7 3 0 5 2 6 4 1-2 3-4 6-4 4 0 7 3 7 7 0 6-6 10-13 15z" fill="#f08a90" fill-opacity=".55"/>
  <path d="M146 150c4-6 10-8 16-7" stroke="#fff" stroke-opacity=".45" stroke-width="3" fill="none" stroke-linecap="round"/>
  <g fill="#ee8fa5">
    <path d="M78 52c-6-5-11-8-11-13 0-3 3-6 6-6 2 0 4 1 5 3 1-2 3-3 5-3 3 0 6 3 6 6 0 5-5 8-11 13z"/>
    <path d="M110 34c-4-3-8-6-8-9 0-2 2-4 4-4 2 0 3 1 4 2 1-1 2-2 4-2 2 0 4 2 4 4 0 3-4 6-8 9z" opacity=".75"/>
    <path d="M58 26c-3-2-6-4-6-7 0-2 1-3 3-3 1 0 2 1 3 2 1-1 2-2 3-2 2 0 3 1 3 3 0 3-3 5-6 7z" opacity=".55"/>
  </g>
</svg>
