<svg xmlns="http://www.w3.org/2000/svg" viewBox="0 0 420 260">
  <defs>
    <radialGradient id="p" cx="50%" cy="50%" r="55%"><stop offset="0" stop-color="#fff5f7"/><stop offset=".6" stop-color="#fbc6d3"/><stop offset="1" stop-color="#f197ae"/></radialGradient>
    <g id="bl">
      <g fill="url(#p)">
        <path d="M0 0c-8-10-6-26 0-30 6 4 8 20 0 30z" transform="rotate(0)"/>
        <path d="M0 0c-8-10-6-26 0-30 6 4 8 20 0 30z" transform="rotate(72)"/>
        <path d="M0 0c-8-10-6-26 0-30 6 4 8 20 0 30z" transform="rotate(144)"/>
        <path d="M0 0c-8-10-6-26 0-30 6 4 8 20 0 30z" transform="rotate(216)"/>
        <path d="M0 0c-8-10-6-26 0-30 6 4 8 20 0 30z" transform="rotate(288)"/>
      </g>
      <circle r="5" fill="#e0607f"/>
      <g stroke="#c7486a" stroke-width="1.2"><path d="M0 0l-6-10M0 0l6-10M0 0l10 3M0 0l-10 3M0 0v11"/></g>
      <g fill="#f3c34f"><circle cx="-6" cy="-10" r="1.8"/><circle cx="6" cy="-10" r="1.8"/><circle cx="10" cy="3" r="1.8"/><circle cx="-10" cy="3" r="1.8"/><circle cy="11" r="1.8"/></g>
    </g>
  </defs>
  <g fill="none" stroke="#5b3a2e" stroke-linecap="round">
    <path d="M10 240C90 200 150 150 230 130s120-40 180-100" stroke-width="7"/>
    <path d="M150 170c10-40 40-70 80-86" stroke-width="4"/>
    <path d="M270 118c30 10 60 40 70 80" stroke-width="4"/>
    <path d="M80 212c-10-24-6-50 10-70" stroke-width="3"/>
  </g>
  <use href="#bl" transform="translate(232 84) scale(1.1)"/>
  <use href="#bl" transform="translate(190 118) rotate(20)"/>
  <use href="#bl" transform="translate(340 196) rotate(-15) scale(.95)"/>
  <use href="#bl" transform="translate(300 106) scale(.85)"/>
  <use href="#bl" transform="translate(92 142) rotate(30) scale(.9)"/>
  <use href="#bl" transform="translate(380 50) scale(.8)"/>
  <use href="#bl" transform="translate(130 184) scale(.75)"/>
  <g fill="#f3a9bc"><ellipse cx="270" cy="170" rx="6" ry="4" transform="rotate(30 270 170)"/><ellipse cx="150" cy="230" rx="6" ry="4" transform="rotate(-20 150 230)"/><ellipse cx="60" cy="110" rx="5" ry="3"/></g>
  <g fill="#e27b95"><circle cx="160" cy="150" r="5"/><circle cx="260" cy="120" r="4"/><circle cx="356" cy="160" r="4"/></g>
  <g fill="#8fb176"><path d="M210 132c-4-10 2-20 12-22-2 10-6 18-12 22z"/><path d="M320 150c10-2 18 4 20 12-10 0-16-4-20-12z"/></g>
</svg>
