<svg xmlns="http://www.w3.org/2000/svg" viewBox="0 0 400 200">
  <path d="M20 150C120 110 260 90 380 40" fill="none" stroke="#6d8c78" stroke-width="3" stroke-linecap="round"/>
  <g fill="#9bb8a6" stroke="#6d8c78" stroke-width="1.5">
    <ellipse cx="60" cy="118" rx="16" ry="14"/><ellipse cx="72" cy="160" rx="15" ry="13"/>
    <ellipse cx="115" cy="100" rx="18" ry="16"/><ellipse cx="128" cy="148" rx="17" ry="15"/>
    <ellipse cx="175" cy="84" rx="19" ry="17"/><ellipse cx="190" cy="132" rx="18" ry="16"/>
    <ellipse cx="238" cy="66" rx="18" ry="16"/><ellipse cx="252" cy="112" rx="17" ry="15"/>
    <ellipse cx="298" cy="48" rx="16" ry="14"/><ellipse cx="312" cy="90" rx="15" ry="13"/>
    <ellipse cx="350" cy="30" rx="12" ry="11"/><ellipse cx="362" cy="62" rx="11" ry="10"/>
  </g>
  <g fill="none" stroke="#6d8c78" stroke-width="1.2" opacity=".7">
    <path d="M60 130v-24M72 150v18M115 114v-28M128 134v28M175 100v-32M190 118v30M238 80v-28M252 98v28M298 60v-24M312 78v24"/>
  </g>
  <g fill="#c7d8cd" opacity=".8"><ellipse cx="54" cy="113" rx="5" ry="3"/><ellipse cx="108" cy="95" rx="6" ry="3"/><ellipse cx="168" cy="78" rx="6" ry="3"/><ellipse cx="231" cy="61" rx="6" ry="3"/><ellipse cx="292" cy="44" rx="5" ry="3"/></g>
</svg>
